<?xml version="1.0" standalone="no"?>
<!DOCTYPE svg PUBLIC "-//W3C//DTD SVG 20010904//EN"
 "http://www.w3.org/TR/2001/REC-SVG-20010904/DTD/svg10.dtd">
<svg version="1.0" xmlns="http://www.w3.org/2000/svg"
 width="512.000000pt" height="512.000000pt" viewBox="0 0 512.000000 512.000000"
 preserveAspectRatio="xMidYMid meet">

<g transform="translate(0.000000,512.000000) scale(0.100000,-0.100000)"
fill="#ef486f" stroke="none">
<path d="M955 4596 c-16 -7 -39 -23 -50 -36 -29 -32 -24 -127 15 -325 160
-813 475 -1524 928 -2091 109 -137 366 -395 497 -499 286 -228 651 -418 980
-512 l60 -17 -45 -9 c-255 -51 -603 -159 -807 -252 -80 -37 -103 -67 -103
-133 0 -53 31 -96 107 -148 117 -80 304 -87 343 -13 12 22 9 98 -5 131 -5 14
11 22 102 51 283 92 575 148 868 166 127 8 131 7 161 -16 48 -36 86 -46 131
-34 81 22 127 113 86 170 -11 15 -24 41 -28 59 -3 17 -11 34 -16 37 -5 4 -9
17 -9 31 0 74 -53 124 -133 124 -42 0 -48 4 -92 56 -156 182 -312 414 -434
645 -90 169 -124 193 -215 155 -80 -33 -96 -106 -46 -206 61 -121 185 -329
276 -462 51 -76 88 -138 82 -138 -31 0 -275 66 -377 102 -144 52 -403 182
-536 270 -787 523 -1358 1532 -1555 2748 -16 95 -33 128 -75 146 -42 17 -71
17 -110 0z"/>
</g>
</svg>
